<?xml version="1.0" standalone="no"?>
<!DOCTYPE svg PUBLIC "-//W3C//DTD SVG 20010904//EN"
 "http://www.w3.org/TR/2001/REC-SVG-20010904/DTD/svg10.dtd">
<svg version="1.0" xmlns="http://www.w3.org/2000/svg"
 width="2186.000000pt" height="2186.000000pt" viewBox="0 0 2186.000000 2186.000000"
 preserveAspectRatio="xMidYMid meet">
<metadata>
Created by potrace 1.14, written by Peter Selinger 2001-2017
</metadata>
<g transform="translate(0.000000,2186.000000) scale(0.100000,-0.100000)"
fill="#000000" stroke="none">
<path d="M10687 21854 c-1 -1 -85 -5 -187 -8 -102 -3 -207 -8 -235 -11 -27 -3
-90 -7 -140 -10 -96 -7 -126 -9 -246 -20 -69 -6 -114 -12 -114 -15 0 0 -27 -2
-60 -4 -33 -2 -94 -8 -135 -14 -93 -14 -153 -22 -205 -28 -22 -3 -65 -9 -95
-14 -30 -5 -73 -12 -95 -15 -54 -8 -63 -10 -200 -35 -66 -12 -131 -24 -145
-26 -14 -3 -68 -14 -120 -25 -52 -11 -106 -23 -120 -25 -13 -3 -63 -14 -110
-25 -47 -12 -98 -23 -115 -26 -16 -3 -38 -9 -47 -14 -10 -5 -18 -8 -18 -5 0 3
-20 -1 -45 -8 -25 -8 -45 -12 -45 -10 0 3 -8 0 -19 -5 -10 -6 -31 -13 -47 -15
-26 -5 -249 -67 -394 -111 -61 -18 -326 -103 -350 -112 -8 -3 -19 -7 -25 -9
-50 -14 -371 -134 -525 -196 -101 -40 -108 -43 -160 -67 -43 -19 -99 -43 -110
-46 -3 -1 -36 -16 -74 -33 -38 -18 -75 -32 -82 -32 -8 0 -14 -4 -14 -10 0 -5
-4 -10 -9 -10 -27 0 -647 -308 -688 -341 -7 -6 -13 -8 -13 -4 0 5 -8 1 -17 -7
-10 -8 -54 -35 -98 -58 -44 -24 -136 -77 -205 -118 -69 -42 -137 -82 -152 -91
-95 -56 -547 -352 -581 -381 -10 -9 -91 -67 -176 -128 -128 -90 -581 -452
-701 -559 -14 -13 -37 -33 -51 -45 -319 -281 -773 -735 -989 -988 -11 -14 -41
-47 -65 -75 -126 -144 -404 -489 -490 -610 -11 -15 -29 -39 -41 -54 -80 -100
-434 -623 -434 -640 0 -5 -4 -11 -8 -13 -10 -4 -159 -249 -269 -443 -184 -322
-364 -682 -508 -1015 -37 -85 -73 -168 -80 -185 -51 -116 -228 -590 -267 -715
-6 -19 -14 -44 -19 -55 -9 -24 -21 -63 -32 -105 -2 -8 -7 -22 -10 -30 -3 -8
-13 -37 -21 -65 -8 -27 -26 -86 -39 -130 -33 -105 -91 -322 -143 -535 -13 -53
-64 -280 -68 -305 -3 -16 -19 -102 -36 -190 -17 -88 -34 -182 -40 -210 -10
-55 -20 -116 -25 -155 -2 -14 -6 -45 -10 -70 -4 -25 -8 -56 -10 -70 -2 -14 -4
-25 -5 -25 -1 0 -3 -11 -4 -25 -4 -41 -18 -163 -22 -185 -2 -11 -7 -45 -10
-75 -3 -30 -7 -71 -9 -90 -11 -107 -23 -236 -30 -350 -3 -47 -8 -107 -10 -135
-23 -271 -23 -970 0 -1315 18 -271 24 -355 30 -400 3 -19 7 -66 10 -105 4 -38
8 -81 10 -95 2 -14 7 -47 10 -75 3 -27 9 -68 12 -90 3 -22 7 -53 9 -70 1 -16
5 -43 8 -60 2 -16 7 -52 11 -80 4 -27 9 -59 11 -70 2 -11 7 -40 10 -65 3 -25
8 -54 10 -65 2 -11 6 -31 9 -45 5 -29 33 -180 41 -225 7 -34 43 -210 50 -240
3 -11 9 -42 15 -70 13 -60 21 -94 49 -205 12 -47 23 -95 25 -107 1 -11 8 -36
13 -55 16 -50 33 -111 36 -128 2 -8 6 -22 9 -30 6 -15 28 -95 33 -117 1 -6 7
-29 14 -50 6 -21 23 -76 37 -123 14 -47 29 -94 34 -105 4 -11 15 -42 23 -70
13 -44 100 -297 155 -445 27 -75 163 -413 191 -475 12 -27 28 -63 35 -80 113
-259 388 -812 447 -897 10 -14 18 -29 18 -33 0 -14 241 -418 252 -423 5 -2 8
-8 8 -13 0 -11 61 -107 189 -297 53 -79 101 -151 106 -160 6 -9 12 -19 15 -22
3 -3 38 -50 77 -105 77 -109 277 -376 333 -445 161 -198 332 -400 443 -524
210 -232 633 -655 797 -796 14 -12 41 -36 60 -53 19 -18 67 -59 105 -92 39
-33 72 -62 75 -65 26 -29 341 -281 490 -393 63 -48 120 -90 125 -95 26 -21
288 -204 355 -248 41 -27 77 -52 80 -55 5 -5 264 -172 302 -194 9 -5 75 -44
145 -87 70 -42 148 -87 173 -101 25 -14 88 -49 140 -79 52 -29 131 -71 175
-93 44 -22 82 -42 85 -45 3 -3 48 -26 100 -52 209 -104 361 -177 363 -176 1 0
37 -16 80 -36 43 -20 84 -36 91 -36 6 0 16 -4 22 -9 10 -9 203 -92 319 -136
39 -15 79 -31 90 -36 35 -15 226 -85 325 -119 52 -18 104 -36 115 -40 38 -16
429 -138 464 -145 9 -2 16 -4 16 -5 0 -1 7 -3 15 -5 8 -2 71 -19 140 -38 116
-32 173 -47 185 -48 2 0 19 -5 37 -10 18 -5 83 -21 143 -35 61 -14 117 -27
125 -29 45 -10 269 -57 290 -60 14 -2 50 -9 80 -15 73 -14 111 -21 135 -25 11
-1 52 -8 90 -15 39 -6 84 -14 100 -16 67 -10 101 -15 130 -19 17 -2 48 -6 70
-10 22 -3 60 -8 85 -11 25 -2 56 -7 70 -9 14 -3 57 -8 95 -11 39 -3 77 -7 85
-9 8 -2 58 -7 110 -11 52 -3 102 -8 112 -9 9 -2 63 -6 120 -10 56 -4 121 -8
143 -10 99 -9 452 -18 685 -18 333 0 644 13 925 39 33 3 83 7 110 9 65 6 221
24 355 41 14 1 46 5 73 8 26 3 60 8 76 11 15 2 43 7 62 9 19 3 48 7 64 10 17
2 50 8 75 11 25 4 52 9 60 10 225 40 318 57 330 62 8 3 26 7 40 9 14 1 34 5
45 7 57 14 72 17 95 22 27 5 235 52 261 59 9 2 33 9 53 14 20 6 36 8 36 5 0
-3 7 0 15 7 8 7 15 10 15 7 0 -3 15 -1 33 4 17 6 43 12 57 15 14 2 36 9 50 14
22 8 87 26 130 35 8 2 69 20 135 40 66 20 127 38 135 40 8 2 15 4 15 4 0 1 99
35 220 75 302 102 625 224 820 311 28 12 88 39 135 60 650 287 1285 651 1910
1094 74 52 137 98 140 101 3 3 50 38 105 79 55 41 102 77 105 80 3 3 34 28 70
56 36 27 70 54 76 60 7 5 31 26 55 45 52 42 177 147 239 200 25 22 55 48 68
59 165 140 522 486 747 723 242 254 543 609 742 874 169 225 255 346 387 544
64 96 119 180 124 185 7 8 45 70 99 160 7 11 15 27 19 35 4 8 10 17 14 20 5 5
81 130 106 175 5 11 38 68 72 127 34 59 62 109 62 111 0 3 24 47 53 98 120
214 327 651 460 969 66 160 94 232 203 525 8 22 16 45 17 50 2 6 5 15 9 20 3
6 9 26 13 45 4 19 11 40 15 45 6 8 44 123 57 170 1 6 18 62 38 125 38 121 132
453 139 492 3 13 5 23 6 23 1 0 3 7 5 15 3 14 21 89 29 120 7 24 24 102 30
130 2 14 16 77 31 140 14 63 27 128 30 145 2 16 7 41 10 55 3 14 7 37 10 52 2
15 6 35 9 45 3 10 8 34 10 53 3 19 15 91 26 160 12 69 23 136 25 150 2 14 6
43 9 65 3 22 8 58 10 80 3 22 9 72 15 110 5 39 13 95 16 125 3 30 8 73 10 95
3 22 7 65 10 95 3 30 7 78 10 105 4 45 12 154 20 290 23 353 23 1102 1 1320
-3 22 -7 87 -11 145 -3 58 -7 121 -10 140 -2 19 -6 67 -10 105 -6 72 -13 137
-20 190 -2 17 -7 62 -10 100 -4 39 -9 79 -11 90 -2 11 -6 40 -9 65 -3 25 -8
56 -10 70 -3 14 -7 48 -10 75 -4 28 -8 57 -10 65 -2 8 -7 31 -10 50 -3 19 -7
46 -10 60 -2 14 -7 43 -10 65 -3 23 -8 52 -11 65 -3 14 -7 39 -10 55 -3 17
-19 98 -36 180 -16 83 -31 157 -33 166 -2 9 -8 33 -13 52 -6 20 -7 38 -4 41 3
3 0 6 -7 6 -7 0 -10 4 -7 8 4 7 -18 106 -68 302 -3 8 -9 33 -14 55 -16 65 -41
154 -68 245 -14 47 -29 99 -34 115 -4 17 -12 41 -18 55 -5 14 -10 28 -11 33 0
4 -2 9 -2 12 -1 3 -3 10 -4 15 -1 6 -4 12 -5 15 -1 3 -3 8 -4 13 -7 31 -134
401 -159 462 -6 14 -11 30 -12 36 -5 22 -153 391 -205 509 -135 309 -330 708
-462 945 -41 74 -88 158 -103 185 -15 28 -43 74 -62 103 -18 29 -33 54 -33 57
0 2 -28 48 -61 102 -97 154 -118 187 -129 200 -5 7 -10 14 -10 17 0 7 -141
220 -150 226 -4 3 -9 10 -11 16 -8 20 -253 360 -351 485 -153 196 -317 399
-338 419 -3 3 -34 39 -69 80 -233 275 -699 749 -970 986 -24 22 -54 48 -65 59
-79 78 -541 452 -716 580 -306 226 -847 585 -879 585 -6 0 -11 5 -11 10 0 6
-7 10 -15 10 -8 0 -15 5 -15 10 0 6 -4 10 -9 10 -7 0 -302 163 -361 200 -16
10 -108 58 -300 157 -545 279 -1195 537 -1820 722 -195 57 -564 154 -635 167
-16 3 -48 10 -70 16 -22 6 -53 12 -70 15 -16 2 -43 8 -60 13 -16 5 -46 12 -65
15 -19 3 -60 10 -90 17 -30 6 -64 12 -75 14 -11 1 -45 7 -75 13 -30 5 -68 12
-85 15 -16 3 -41 7 -55 10 -13 3 -42 8 -65 11 -22 3 -51 8 -65 11 -14 2 -43 7
-65 9 -62 8 -91 13 -137 21 -24 4 -47 7 -51 6 -4 -1 -36 2 -70 8 -35 5 -92 12
-129 15 -36 3 -76 8 -89 10 -13 3 -57 7 -99 11 -41 3 -91 7 -110 9 -82 9 -295
22 -495 31 -136 6 -684 12 -688 8z"/>
</g>
</svg>
